<svg width="1em" height="1em" viewBox="0 0 500 500" fill="none" xmlns="http://www.w3.org/2000/svg" font-size="56px" style="border-radius: 0.2em;"><rect width="500" height="500" rx="100" fill="#3156ED"></rect><mask id="mask0_4602_815" maskUnits="userSpaceOnUse" x="93" y="155" width="218" height="190" style="mask-type: luminance;"><path d="M93.6667 155.667H309.875V344.333H93.6667V155.667Z" fill="white" stroke="white" stroke-width="1.33333"></path></mask><g mask="url(#mask0_4602_815)"><mask id="mask1_4602_815" maskUnits="userSpaceOnUse" x="93" y="155" width="217" height="190" style="mask-type: luminance;"><path d="M103.126 186.417L103.126 186.417C85.8314 214.819 97.9905 242.47 113.35 257.186L103.126 186.417ZM103.126 186.417C112.324 171.307 126.908 160.87 143.128 157.748C160.274 154.468 178.133 158.685 192.157 169.313L192.157 169.313C196.185 172.364 199.742 175.803 202.773 179.562L203.303 180.219L203.819 179.552C206.372 176.254 209.306 173.217 212.59 170.497C224.774 160.404 240.388 155.842 256.572 157.574C282.942 160.439 304.282 180.475 308.468 206.28L308.468 206.28C311.502 224.922 306.066 241.671 291.77 257.516L203.522 343.431L113.35 257.186L103.126 186.417Z" fill="white" stroke="white" stroke-width="1.33333"></path></mask><g mask="url(#mask1_4602_815)"><path d="M102.557 186.071C85.0468 214.826 97.3854 242.814 112.889 257.668L203.526 344.357L292.251 257.979C306.673 242 312.198 225.048 309.127 206.173C304.891 180.066 283.306 159.808 256.643 156.912C240.287 155.16 224.492 159.772 212.164 169.983C208.843 172.735 205.875 175.807 203.292 179.144C200.226 175.341 196.629 171.864 192.56 168.781C178.386 158.041 160.336 153.777 143.003 157.093C126.584 160.253 111.844 170.812 102.557 186.071Z" stroke="white" stroke-width="54"></path></g></g><mask id="mask2_4602_815" maskUnits="userSpaceOnUse" x="189" y="155" width="219" height="190" style="mask-type: luminance;"><path d="M190.128 155.667H406.336V344.333H190.128V155.667Z" fill="white" stroke="white" stroke-width="1.33333"></path></mask><g mask="url(#mask2_4602_815)"><mask id="mask3_4602_815" maskUnits="userSpaceOnUse" x="190" y="155" width="217" height="190" style="mask-type: luminance;"><path d="M199.583 186.417L199.583 186.417C182.288 214.819 194.448 242.47 209.807 257.186L199.583 186.417ZM199.583 186.417C208.781 171.307 223.365 160.87 239.585 157.748C256.731 154.468 274.59 158.685 288.614 169.313L288.614 169.313C292.642 172.364 296.199 175.803 299.23 179.562L299.76 180.219L300.276 179.552C302.83 176.254 305.763 173.217 309.047 170.497C321.231 160.404 336.845 155.842 353.029 157.574C379.399 160.439 400.739 180.475 404.925 206.28L404.926 206.28C407.959 224.922 402.523 241.671 388.227 257.516L299.979 343.431L209.807 257.186L199.583 186.417Z" fill="white" stroke="white" stroke-width="1.33333"></path></mask><g mask="url(#mask3_4602_815)"><path d="M199.014 186.071C181.504 214.826 193.842 242.814 209.346 257.668L299.983 344.357L388.708 257.979C403.13 242 408.655 225.048 405.584 206.173C401.348 180.066 379.763 159.808 353.1 156.912C336.744 155.16 320.949 159.772 308.621 169.983C305.3 172.735 302.332 175.807 299.749 179.144C296.683 175.341 293.086 171.864 289.017 168.781C274.844 158.041 256.793 153.777 239.46 157.093C223.041 160.253 208.301 170.812 199.014 186.071Z" stroke="white" stroke-width="54"></path></g></g></svg>
